{"title":"DIL VIL PYAAR VYAAR 2014 Punjabi  DVDSCRRip GOPI SAHI TNT","uid":10089465,"size":310945651,"categoryP":"video","categoryS":"movies","magnet":"?xt=urn:btih:bb7dc0e4695aa79265d04ad68e5c924b5a0cd9a8&amp;dn=DIL+VIL+PYAAR+VYAAR+2014+Punjabi++DVDSCRRip+GOPI+SAHI+TNT&amp;tr=udp%3A%2F%2Ftracker.openbittorrent.com%3A80&amp;tr=udp%3A%2F%2Fopen.demonii.com%3A1337&amp;tr=udp%3A%2F%2Ftracker.coppersurfer.tk%3A6969&amp;tr=udp%3A%2F%2Fexodus.desync.com%3A6969","seeders":2,"leechers":0,"uploader":"jatt13","files":1,"time":1399170723,"description":"Video\nID                             : 1\nFormat                         : AVC\nFormat/Info                    : Advanced Video Codec\nFormat profile                 : &lt;a class=&quot;__cf_email__&quot; href=&quot;/cdn-cgi/l/email-protection&quot; data-cfemail=&quot;eea38f8780aea2dac0de&quot;&gt;[email&amp;#160;protected]&lt;/a&gt;&lt;script cf-hash='f9e31' type=&quot;text/javascript&quot;&gt;\n/* &lt;![CDATA[ */!function(){try{var t=&quot;currentScript&quot;in document?document.currentScript:function(){for(var t=document.getElementsByTagName(&quot;script&quot;),e=t.length;e--;)if(t[e].getAttribute(&quot;cf-hash&quot;))return t[e]}();if(t&amp;&amp;t.previousSibling){var e,r,n,i,c=t.previousSibling,a=c.getAttribute(&quot;data-cfemail&quot;);if(a){for(e=&quot;&quot;,r=parseInt(a.substr(0,2),16),n=2;a.length-n;n+=2)i=parseInt(a.substr(n,2),16)^r,e+=String.fromCharCode(i);e=document.createTextNode(e),c.parentNode.replaceChild(e,c)}}}catch(u){}}();/* ]]&gt; */&lt;/script&gt;\nFormat settings, CABAC         : Yes\nFormat settings, ReFrames      : 4 frames\nCodec ID                       : V_MPEG4/ISO/AVC\nDuration                       : 2h 25mn\nBit rate                       : 250 Kbps\nWidth                          : 640 pixels\nHeight                         : 304 pixels\nDisplay aspect ratio           : 2.105\nFrame rate mode                : Constant\nFrame rate                     : 23.976 fps\nColor space                    : YUV\nChroma subsampling             : 4:2:0\nBit depth                      : 8 bits\nScan type                      : Progressive\nBits/(Pixel*Frame)             : 0.054\nStream size                    : 257 MiB (87%)\nTitle                          : Punjabi GOPI SAHI\nLanguage                       : English\nDefault                        : Yes\nForced                         : No\nColor primaries                : BT.601 NTSC\nTransfer characteristics       : BT.709\nMatrix coefficients            : BT.601\n\nAudio\nID                             : 2\nFormat                         : MPEG Audio\nFormat version                 : Version 1\nFormat profile                 : Layer 3\nMode                           : Joint stereo\nMode extension                 : MS Stereo\nCodec ID                       : A_MPEG/L3\nCodec ID/Hint                  : MP3\nDuration                       : 2h 25mn\nBit rate mode                  : Constant\nBit rate                       : 32.0 Kbps\nChannel count                  : 2 channels\nSampling rate                  : 44.1 KHz\nCompression mode               : Lossy\nStream size                    : 33.4 MiB (11%)\nTitle                          : Punjabi GOPI SAHI\nDefault                        : Yes\nForced                         : No\n[IMG]http://i.imgur.com/55EQhO2.jpg[/IMG]\n[IMG]http://i.imgur.com/RzgyTeQ.jpg[/IMG]\n[IMG]http://i.imgur.com/nM9onj6.jpg[/IMG]\n[IMG]http://i.imgur.com/81ESigm.jpg[/IMG]","torrent":{"xt":"urn:btih:bb7dc0e4695aa79265d04ad68e5c924b5a0cd9a8","amp;dn":"DIL+VIL+PYAAR+VYAAR+2014+Punjabi++DVDSCRRip+GOPI+SAHI+TNT","amp;tr":["udp%3A%2F%2Ftracker.openbittorrent.com%3A80","udp%3A%2F%2Fopen.demonii.com%3A1337","udp%3A%2F%2Ftracker.coppersurfer.tk%3A6969","udp%3A%2F%2Fexodus.desync.com%3A6969"],"infoHash":"bb7dc0e4695aa79265d04ad68e5c924b5a0cd9a8","infoHashBuffer":{"type":"Buffer","data":[187,125,192,228,105,90,167,146,101,208,74,214,142,92,146,75,90,12,217,168]},"announce":[],"urlList":[]}}